<!-- Generator: Adobe Illustrator 19.1.0, SVG Export Plug-In  -->
<svg version="1.1"
	 xmlns="http://www.w3.org/2000/svg" xmlns:xlink="http://www.w3.org/1999/xlink" xmlns:a="http://ns.adobe.com/AdobeSVGViewerExtensions/3.0/"
	 x="0px" y="0px" width="88.1px" height="88.1px" viewBox="0 0 88.1 88.1" style="enable-background:new 0 0 88.1 88.1;"
	 xml:space="preserve">
<style type="text/css">
	.st0{fill:#2F9DCD;}
</style>
<defs>
</defs>
<g>
	<path class="st0" d="M86.9,81.3L62.3,56.6c4.7-6,7.6-13.5,7.6-21.7C69.9,15.6,54.2,0,35,0S0,15.7,0,34.9s15.7,34.9,34.9,34.9
		c8.2,0,15.7-2.8,21.7-7.6l24.7,24.7c0.8,0.8,1.8,1.2,2.8,1.2s2-0.4,2.8-1.2C88.5,85.4,88.5,82.8,86.9,81.3z M8,34.9
		C8,20,20.1,8,34.9,8s26.9,12.1,26.9,26.9s-12,27-26.9,27S8,49.8,8,34.9z"/>
	<path class="st0" d="M34.9,13.5c-11.8,0-21.4,9.6-21.4,21.4c0,2.2,1.8,4,4,4s4-1.8,4-4c0-7.4,6-13.4,13.4-13.4c2.2,0,4-1.8,4-4
		S37.1,13.5,34.9,13.5z"/>
</g>
</svg>